<svg xmlns="http://www.w3.org/2000/svg" version="1.1" viewBox="181 137.13 133.07 225.2">
<path d="M0 0 C0.8925743 15.83492925 -7.45551835 28.37435472 -15.47875977 41.45751953 C-16.99055971 43.98422224 -18.41633842 46.54088366 -19.8203125 49.12890625 C-20.34415527 50.0936084 -20.86799805 51.05831055 -21.40771484 52.05224609 C-22.89590178 54.80728582 -24.37868399 57.56514491 -25.859375 60.32421875 C-31.86033445 71.47911227 -38.11453518 82.36713618 -45 93 C-44.3201001 93.05534912 -43.6402002 93.11069824 -42.93969727 93.16772461 C-39.81385291 93.42296604 -36.6881772 93.68022009 -33.5625 93.9375 C-32.49322266 94.02451172 -31.42394531 94.11152344 -30.32226562 94.20117188 C-28.20767705 94.37577093 -26.09370666 94.55804061 -23.98046875 94.74829102 C-22.09499411 94.90752466 -20.20655145 95.03688612 -18.31640625 95.12475586 C-12.49929244 95.484194 -12.49929244 95.484194 -9.9921875 98.07421875 C-8.3929957 101.81498559 -7.0944623 105.05537705 -6.6875 109.125 C-8.37516108 112.82178142 -10.73719138 114.97509124 -13.6875 117.73046875 C-16.18230192 120.17891455 -18.32247378 122.76675095 -20.5 125.5 C-23.75219925 129.55127913 -27.11546849 133.28067788 -30.8828125 136.85546875 C-32.75285912 138.74966726 -34.49176653 140.6890113 -36.234375 142.69921875 C-40.73846101 147.88844854 -45.47803474 152.84444958 -50.21484375 157.8203125 C-53.20886098 160.98034598 -56.14564243 164.12399842 -58.8671875 167.5234375 C-59.57101563 168.34070313 -60.27484375 169.15796875 -61 170 C-61.66 170 -62.32 170 -63 170 C-63.33 170.99 -63.66 171.98 -64 173 C-64.66 173 -65.32 173 -66 173 C-66.28875 173.598125 -66.5775 174.19625 -66.875 174.8125 C-68 177 -68 177 -70 180 C-70.66 180 -71.32 180 -72 180 C-72.26425781 180.58644287 -72.52851563 181.17288574 -72.80078125 181.77709961 C-74.04446603 184.08242328 -75.38027236 185.6787942 -77.1875 187.56640625 C-77.80367187 188.21673828 -78.41984375 188.86707031 -79.0546875 189.53710938 C-79.69664062 190.20548828 -80.33859375 190.87386719 -81 191.5625 C-82.27274913 192.89530858 -83.54365927 194.22987632 -84.8125 195.56640625 C-85.37582031 196.15365479 -85.93914062 196.74090332 -86.51953125 197.34594727 C-88.195549 199.13992736 -88.195549 199.13992736 -90 202 C-90.66 202 -91.32 202 -92 202 C-92.3403125 202.804375 -92.3403125 202.804375 -92.6875 203.625 C-94.45570089 206.82460161 -96.53670203 209.29037223 -99 212 C-99.66 212 -100.32 212 -101 212 C-101.33 212.99 -101.66 213.98 -102 215 C-104.1796875 216.75390625 -104.1796875 216.75390625 -106.875 218.5625 C-107.75929687 219.16191406 -108.64359375 219.76132812 -109.5546875 220.37890625 C-110.36164063 220.91386719 -111.16859375 221.44882812 -112 222 C-113.485 222.99 -113.485 222.99 -115 224 C-117.4375 224.4375 -117.4375 224.4375 -120 224 C-122.4375 222.125 -122.4375 222.125 -124 219 C-124.37545703 209.86387883 -118.16373599 200.78058769 -114 193 C-113.66129883 192.36368652 -113.32259766 191.72737305 -112.97363281 191.07177734 C-111.65425396 188.59390375 -110.33247691 186.11739906 -109.00146484 183.64575195 C-106.22892372 178.48390491 -103.61059656 173.25299952 -101.01098633 168.00244141 C-98.34029912 162.62950015 -95.55009163 157.32724905 -92.70117188 152.046875 C-88.78704034 145.83219784 -88.78704034 145.83219784 -87 139 C-88.16047852 139.02094727 -89.32095703 139.04189453 -90.51660156 139.06347656 C-94.82523238 139.13591807 -99.13380945 139.18181471 -103.44287109 139.21972656 C-105.30722101 139.23983261 -107.17150794 139.2671218 -109.03564453 139.30175781 C-111.71662948 139.35032121 -114.39678023 139.37297838 -117.078125 139.390625 C-117.91055725 139.41127014 -118.7429895 139.43191528 -119.60064697 139.45318604 C-125.38481986 139.45542501 -125.38481986 139.45542501 -128.44433594 137.19042969 C-131.06502383 133.500409 -133 129.97428642 -133 125.375 C-131.63138701 122.12454414 -129.66118777 120.27174566 -127 118 C-126.34 118 -125.68 118 -125 118 C-124.67 117.01 -124.34 116.02 -124 115 C-122.33784732 113.66104368 -120.67036393 112.32869858 -119 111 C-118.08192425 109.93545062 -117.18591487 108.8514876 -116.3125 107.75 C-115.549375 106.8425 -114.78625 105.935 -114 105 C-113.34 105 -112.68 105 -112 105 C-111.505 103.515 -111.505 103.515 -111 102 C-109.34211215 100.65576661 -107.67423683 99.32381517 -106 98 C-104.64172029 96.35360035 -103.30745749 94.68704193 -102 93 C-99.875 90.6875 -99.875 90.6875 -98 89 C-97.34 89 -96.68 89 -96 89 C-95.505 87.515 -95.505 87.515 -95 86 C-93.33784732 84.66104368 -91.67036393 83.32869858 -90 82 C-89.08192425 80.93545062 -88.18591487 79.8514876 -87.3125 78.75 C-86.549375 77.8425 -85.78625 76.935 -85 76 C-84.34 76 -83.68 76 -83 76 C-82.505 74.515 -82.505 74.515 -82 73 C-80.34211215 71.65576661 -78.67423683 70.32381517 -77 69 C-76.401875 68.236875 -75.80375 67.47375 -75.1875 66.6875 C-72.72442113 63.66143167 -69.99539048 61.30298145 -67.03125 58.78125 C-65.13170248 57.11549294 -63.37589097 55.38205336 -61.625 53.5625 C-59 51 -59 51 -57 51 C-56.67 50.01 -56.34 49.02 -56 48 C-55.34 48 -54.68 48 -54 48 C-53.731875 47.401875 -53.46375 46.80375 -53.1875 46.1875 C-52.00082594 44.00152146 -50.90400887 42.58667406 -49 41 C-48.34 41 -47.68 41 -47 41 C-46.67 40.01 -46.34 39.02 -46 38 C-45.34 38 -44.68 38 -44 38 C-43.67 37.01 -43.34 36.02 -43 35 C-42.34 35 -41.68 35 -41 35 C-40.67 34.01 -40.34 33.02 -40 32 C-39.34 32 -38.68 32 -38 32 C-37.67 31.01 -37.34 30.02 -37 29 C-35.0625 26.8125 -35.0625 26.8125 -33 25 C-32.34 25 -31.68 25 -31 25 C-31 24.34 -31 23.68 -31 23 C-29.54443359 21.56787109 -29.54443359 21.56787109 -27.5234375 19.8984375 C-22.97736603 16.03357551 -18.80254016 11.88091802 -14.625 7.625 C-13.22367253 6.19824009 -11.8201365 4.77364493 -10.4140625 3.3515625 C-9.50068115 2.42077881 -9.50068115 2.42077881 -8.56884766 1.47119141 C-5.53275987 -1.37590866 -3.8944534 -0.92237054 0 0 Z " fill="#12281A" transform="translate(314,138)"/>
<path d="M0 0 C0 3.80211506 -1.08148589 4.75845985 -3.375 7.75 C-6.67852957 12.17021563 -9.83022857 16.64793807 -12.875 21.25 C-13.30095459 21.89267822 -13.72690918 22.53535645 -14.16577148 23.19750977 C-15.4453406 25.13069076 -16.72274138 27.06529196 -18 29 C-19.47730328 31.23043828 -20.95578175 33.46000156 -22.4375 35.6875 C-22.82446045 36.26951172 -23.2114209 36.85152344 -23.61010742 37.45117188 C-26.58557004 41.91238028 -29.59332174 46.35132214 -32.609375 50.78515625 C-33.02353165 51.39425339 -33.43768829 52.00335052 -33.86439514 52.63090515 C-35.95276913 55.70173357 -38.04308063 58.77121462 -40.13647461 61.83862305 C-40.92827789 63.00175277 -41.72002795 64.16491872 -42.51171875 65.328125 C-43.20740967 66.3480957 -43.90310059 67.36806641 -44.61987305 68.41894531 C-47.81886222 73.23203108 -50.89728109 78.12429885 -54 83 C-43.44 83 -32.88 83 -22 83 C-23.95960451 86.91920902 -26.28272496 89.86008183 -29.125 93.125 C-30.12604926 94.29076648 -31.12604175 95.45744121 -32.125 96.625 C-32.61613281 97.19863281 -33.10726562 97.77226562 -33.61328125 98.36328125 C-36.15788181 101.3666267 -38.59372771 104.45494638 -41.0390625 107.5390625 C-43.91863151 111.15286424 -46.85762346 114.71730912 -49.7890625 118.2890625 C-51.83849413 120.80196983 -53.86040475 123.33414314 -55.875 125.875 C-59.03039377 129.83656224 -62.27827134 133.70809276 -65.5625 137.5625 C-69.15370342 141.78034415 -72.63972803 146.04585288 -76.0078125 150.4453125 C-78.70338151 153.90198335 -81.47829567 157.29176166 -84.25 160.6875 C-88.50285304 165.90324008 -92.72114294 171.14251336 -96.875 176.4375 C-97.32447998 177.00960205 -97.77395996 177.5817041 -98.23706055 178.17114258 C-100.23586346 180.72192861 -102.21513226 183.28490489 -104.16796875 185.87109375 C-105.10576172 187.11052734 -105.10576172 187.11052734 -106.0625 188.375 C-106.85333984 189.43847656 -106.85333984 189.43847656 -107.66015625 190.5234375 C-108.10230469 191.01070312 -108.54445312 191.49796875 -109 192 C-109.66 192 -110.32 192 -111 192 C-111.60744571 187.03602957 -109.47397247 183.7830931 -107 179.6875 C-106.16477162 178.25707035 -105.3328208 176.82472266 -104.50390625 175.390625 C-104.08254395 174.66166016 -103.66118164 173.93269531 -103.22705078 173.18164062 C-101.34025433 169.82700213 -99.63162535 166.39246193 -97.9375 162.9375 C-94.97276597 156.90933115 -91.89101914 150.95868098 -88.70092773 145.04663086 C-86.73269962 141.39617399 -84.83660688 137.71842254 -83 134 C-81.68 134 -80.36 134 -79 134 C-78.91363281 132.84628906 -78.82726562 131.69257813 -78.73828125 130.50390625 C-78.14386434 125.77459624 -76.41534567 122.10611866 -74.1875 117.9375 C-73.84396484 117.26912109 -73.50042969 116.60074219 -73.14648438 115.91210938 C-70.87820612 111.53301309 -68.4507581 107.28882667 -66 103 C-78.54 103 -91.08 103 -104 103 C-99.80067378 98.10078608 -95.67544968 93.52018061 -91.125 89 C-90.55136719 88.4225 -89.97773438 87.845 -89.38671875 87.25 C-86.50504842 84.37474764 -83.57848566 81.61341097 -80.47363281 78.98022461 C-75.53053508 74.67215029 -70.93279703 70.03080298 -66.32588577 65.37048531 C-64.75648685 63.78346484 -63.18337177 62.20021259 -61.60922241 60.61790466 C-57.14056873 56.124976 -52.67785596 51.62617843 -48.21923828 47.12329102 C-45.47802838 44.35537885 -42.73203046 41.5922934 -39.98298264 38.83216667 C-38.93885667 37.78182469 -37.89663309 36.72958808 -36.85634232 35.67544746 C-35.41082494 34.21082148 -33.95935073 32.75236035 -32.50634766 31.29516602 C-31.68220367 30.46356461 -30.85805969 29.6319632 -30.00894165 28.77516174 C-28 27 -28 27 -26 27 C-26 26.34 -26 25.68 -26 25 C-24.625 23.375 -24.625 23.375 -23 22 C-22.34 22 -21.68 22 -21 22 C-21 21.34 -21 20.68 -21 20 C-19.70703125 18.73046875 -19.70703125 18.73046875 -17.8125 17.1875 C-11.50477121 11.84581976 -5.79990037 5.87947217 0 0 Z " fill="#64E581" transform="translate(307,151)"/>
<path d="M0 0 C0.8925743 15.83492925 -7.45551835 28.37435472 -15.47875977 41.45751953 C-16.99055971 43.98422224 -18.41633842 46.54088366 -19.8203125 49.12890625 C-20.34415527 50.0936084 -20.86799805 51.05831055 -21.40771484 52.05224609 C-22.89590178 54.80728582 -24.37868399 57.56514491 -25.859375 60.32421875 C-31.86033445 71.47911227 -38.11453518 82.36713618 -45 93 C-40.05 93.33 -35.1 93.66 -30 94 C-30 94.33 -30 94.66 -30 95 C-37.26 95 -44.52 95 -52 95 C-48.35333643 85.88334107 -43.18442172 77.56722086 -38.18579102 69.13964844 C-33.74442745 61.62514916 -29.46860114 54.01857661 -25.20288086 46.40332031 C-24.67057861 45.45553711 -24.13827637 44.50775391 -23.58984375 43.53125 C-23.11409912 42.68111328 -22.63835449 41.83097656 -22.14819336 40.95507812 C-21 39 -21 39 -20 38 C-19.979375 37.05125 -19.95875 36.1025 -19.9375 35.125 C-19.31592129 30.10057213 -16.1201263 26.6430901 -13.10546875 22.74609375 C-10.92556156 19.90291239 -8.95894673 16.99784882 -7 14 C-7.56509277 14.57556641 -8.13018555 15.15113281 -8.71240234 15.74414062 C-11.26142102 18.33458544 -13.81807556 20.91735937 -16.375 23.5 C-17.70917969 24.85931641 -17.70917969 24.85931641 -19.0703125 26.24609375 C-19.92109375 27.10332031 -20.771875 27.96054688 -21.6484375 28.84375 C-22.43395996 29.63974609 -23.21948242 30.43574219 -24.02880859 31.25585938 C-26 33 -26 33 -28 33 C-28 33.66 -28 34.32 -28 35 C-28.66 35 -29.32 35 -30 35 C-30.33 35.99 -30.66 36.98 -31 38 C-31.66 38 -32.32 38 -33 38 C-33 38.66 -33 39.32 -33 40 C-34.36328125 41.34204102 -34.36328125 41.34204102 -36.3125 42.94140625 C-41.29423704 47.18134516 -45.88825438 51.77404193 -50.49072266 56.41555786 C-52.0369274 57.97473727 -53.58641896 59.53058621 -55.13671875 61.08569336 C-58.42732983 64.38763136 -61.71396962 67.69350416 -65 71 C-68.81336505 74.83711476 -72.62842149 78.67251675 -76.44775391 82.50369263 C-77.96076052 84.02309466 -79.4706797 85.54551703 -80.98046875 87.06811523 C-84.84625346 90.95419894 -88.70026335 94.81406996 -92.875 98.37109375 C-98.84901121 103.62663959 -104.37374138 109.37374138 -110 115 C-91.685 115.495 -91.685 115.495 -73 116 C-74.21808171 119.04520426 -75.33577444 121.77966118 -76.83984375 124.63671875 C-80.62217741 131.93583323 -84.13756152 138.92943324 -86 147 C-86.99 147 -87.98 147 -89 147 C-88.33333333 144.33333333 -87.66666667 141.66666667 -87 139 C-88.16047852 139.02094727 -89.32095703 139.04189453 -90.51660156 139.06347656 C-94.82523238 139.13591807 -99.13380945 139.18181471 -103.44287109 139.21972656 C-105.30722101 139.23983261 -107.17150794 139.2671218 -109.03564453 139.30175781 C-111.71662948 139.35032121 -114.39678023 139.37297838 -117.078125 139.390625 C-117.91055725 139.41127014 -118.7429895 139.43191528 -119.60064697 139.45318604 C-125.38481986 139.45542501 -125.38481986 139.45542501 -128.44433594 137.19042969 C-131.06502383 133.500409 -133 129.97428642 -133 125.375 C-131.63138701 122.12454414 -129.66118777 120.27174566 -127 118 C-126.34 118 -125.68 118 -125 118 C-124.67 117.01 -124.34 116.02 -124 115 C-122.33784732 113.66104368 -120.67036393 112.32869858 -119 111 C-118.08192425 109.93545062 -117.18591487 108.8514876 -116.3125 107.75 C-115.549375 106.8425 -114.78625 105.935 -114 105 C-113.34 105 -112.68 105 -112 105 C-111.505 103.515 -111.505 103.515 -111 102 C-109.34211215 100.65576661 -107.67423683 99.32381517 -106 98 C-104.64172029 96.35360035 -103.30745749 94.68704193 -102 93 C-99.875 90.6875 -99.875 90.6875 -98 89 C-97.34 89 -96.68 89 -96 89 C-95.505 87.515 -95.505 87.515 -95 86 C-93.33784732 84.66104368 -91.67036393 83.32869858 -90 82 C-89.08192425 80.93545062 -88.18591487 79.8514876 -87.3125 78.75 C-86.549375 77.8425 -85.78625 76.935 -85 76 C-84.34 76 -83.68 76 -83 76 C-82.505 74.515 -82.505 74.515 -82 73 C-80.34211215 71.65576661 -78.67423683 70.32381517 -77 69 C-76.401875 68.236875 -75.80375 67.47375 -75.1875 66.6875 C-72.72442113 63.66143167 -69.99539048 61.30298145 -67.03125 58.78125 C-65.13170248 57.11549294 -63.37589097 55.38205336 -61.625 53.5625 C-59 51 -59 51 -57 51 C-56.67 50.01 -56.34 49.02 -56 48 C-55.34 48 -54.68 48 -54 48 C-53.731875 47.401875 -53.46375 46.80375 -53.1875 46.1875 C-52.00082594 44.00152146 -50.90400887 42.58667406 -49 41 C-48.34 41 -47.68 41 -47 41 C-46.67 40.01 -46.34 39.02 -46 38 C-45.34 38 -44.68 38 -44 38 C-43.67 37.01 -43.34 36.02 -43 35 C-42.34 35 -41.68 35 -41 35 C-40.67 34.01 -40.34 33.02 -40 32 C-39.34 32 -38.68 32 -38 32 C-37.67 31.01 -37.34 30.02 -37 29 C-35.0625 26.8125 -35.0625 26.8125 -33 25 C-32.34 25 -31.68 25 -31 25 C-31 24.34 -31 23.68 -31 23 C-29.54443359 21.56787109 -29.54443359 21.56787109 -27.5234375 19.8984375 C-22.97736603 16.03357551 -18.80254016 11.88091802 -14.625 7.625 C-13.22367253 6.19824009 -11.8201365 4.77364493 -10.4140625 3.3515625 C-9.50068115 2.42077881 -9.50068115 2.42077881 -8.56884766 1.47119141 C-5.53275987 -1.37590866 -3.8944534 -0.92237054 0 0 Z " fill="#0F2515" transform="translate(314,138)"/>
<path d="M0 0 C5.5018119 -0.21981387 10.6053084 -0.19461608 16 1 C19.92185144 4.69319226 20.79085801 8.90858014 21.3125 14.125 C19.62483892 17.82178142 17.26280862 19.97509124 14.3125 22.73046875 C11.81769808 25.17891455 9.67752622 27.76675095 7.5 30.5 C4.24780075 34.55127913 0.88453151 38.28067788 -2.8828125 41.85546875 C-4.75285912 43.74966726 -6.49176653 45.6890113 -8.234375 47.69921875 C-12.73846101 52.88844854 -17.47803474 57.84444958 -22.21484375 62.8203125 C-25.20886098 65.98034598 -28.14564243 69.12399842 -30.8671875 72.5234375 C-31.57101563 73.34070313 -32.27484375 74.15796875 -33 75 C-33.66 75 -34.32 75 -35 75 C-35.495 76.485 -35.495 76.485 -36 78 C-36.66 78 -37.32 78 -38 78 C-38.28875 78.598125 -38.5775 79.19625 -38.875 79.8125 C-40 82 -40 82 -42 85 C-42.66 85 -43.32 85 -44 85 C-44.26425781 85.58644287 -44.52851563 86.17288574 -44.80078125 86.77709961 C-46.04446603 89.08242328 -47.38027236 90.6787942 -49.1875 92.56640625 C-49.80367187 93.21673828 -50.41984375 93.86707031 -51.0546875 94.53710938 C-52.01761719 95.53967773 -52.01761719 95.53967773 -53 96.5625 C-54.27274913 97.89530858 -55.54365927 99.22987632 -56.8125 100.56640625 C-57.37582031 101.15365479 -57.93914062 101.74090332 -58.51953125 102.34594727 C-60.195549 104.13992736 -60.195549 104.13992736 -62 107 C-62.66 107 -63.32 107 -64 107 C-64.226875 107.53625 -64.45375 108.0725 -64.6875 108.625 C-66.45570089 111.82460161 -68.53670203 114.29037223 -71 117 C-71.66 117 -72.32 117 -73 117 C-73.33 117.99 -73.66 118.98 -74 120 C-76.1796875 121.75390625 -76.1796875 121.75390625 -78.875 123.5625 C-79.75929687 124.16191406 -80.64359375 124.76132812 -81.5546875 125.37890625 C-82.36164063 125.91386719 -83.16859375 126.44882812 -84 127 C-85.485 127.99 -85.485 127.99 -87 129 C-89.4375 129.4375 -89.4375 129.4375 -92 129 C-94.4375 127.125 -94.4375 127.125 -96 124 C-95.73123761 120.54824769 -94.95464474 117.32190569 -94 114 C-93.566875 114.9590625 -93.566875 114.9590625 -93.125 115.9375 C-92.17176549 118.15206079 -92.17176549 118.15206079 -90 119 C-90 119.66 -90 120.32 -90 121 C-88.68 121 -87.36 121 -86 121 C-85.67 121.66 -85.34 122.32 -85 123 C-84.51789063 122.4225 -84.03578125 121.845 -83.5390625 121.25 C-82.90742188 120.5075 -82.27578125 119.765 -81.625 119 C-80.99851563 118.2575 -80.37203125 117.515 -79.7265625 116.75 C-79.15679687 116.1725 -78.58703125 115.595 -78 115 C-77.34 115 -76.68 115 -76 115 C-75.64228516 114.17822266 -75.64228516 114.17822266 -75.27734375 113.33984375 C-73.687567 110.42768389 -71.70276681 108.0963791 -69.5625 105.5625 C-67.24669534 102.81939695 -65.14910138 100.25575272 -63.33984375 97.15234375 C-62.89769531 96.44207031 -62.45554688 95.73179687 -62 95 C-61.34 95 -60.68 95 -60 95 C-59.7421875 94.43796875 -59.484375 93.8759375 -59.21875 93.296875 C-57.85830223 90.73295421 -56.27211038 88.54773635 -54.5 86.25 C-53.8915625 85.45078125 -53.283125 84.6515625 -52.65625 83.828125 C-52.1096875 83.22484375 -51.563125 82.6215625 -51 82 C-50.34 82 -49.68 82 -49 82 C-48.66548828 81.21882813 -48.66548828 81.21882813 -48.32421875 80.421875 C-46.50300245 77.09103692 -44.17064658 74.20915743 -41.8125 71.25 C-41.32072266 70.62746338 -40.82894531 70.00492676 -40.32226562 69.36352539 C-37.11495373 65.32758786 -33.78424893 61.43265306 -30.34765625 57.58984375 C-28.61038313 55.54036502 -27.33768012 53.3264002 -26 51 C-21.10218757 44.09667664 -21.10218757 44.09667664 -18.4375 41.4453125 C-16.76469084 39.85661579 -16.76469084 39.85661579 -15 37 C-14.34 37 -13.68 37 -13 37 C-13 36.34 -13 35.68 -13 35 C-12.34 35 -11.68 35 -11 35 C-10.72220703 34.4112207 -10.44441406 33.82244141 -10.15820312 33.21582031 C-8.34581635 29.74844629 -5.91246873 26.81701451 -3.5 23.75 C-2.75169922 22.77546875 -2.75169922 22.77546875 -1.98828125 21.78125 C-0.70815807 20.14763436 0.64105599 18.56865759 2 17 C2.66 17 3.32 17 4 17 C4.268125 16.21625 4.53625 15.4325 4.8125 14.625 C6 12 6 12 9 10 C10.19232613 7.94996045 10.19232613 7.94996045 11 6 C11.66 6 12.32 6 13 6 C13.33 4.68 13.66 3.36 14 2 C9.71 2 5.42 2 1 2 C0.505 1.01 0.505 1.01 0 0 Z " fill="#06080B" transform="translate(286,233)"/>
<path d="M0 0 C0.8925743 15.83492925 -7.45551835 28.37435472 -15.47875977 41.45751953 C-16.99055971 43.98422224 -18.41633842 46.54088366 -19.8203125 49.12890625 C-20.34415527 50.0936084 -20.86799805 51.05831055 -21.40771484 52.05224609 C-22.89590178 54.80728582 -24.37868399 57.56514491 -25.859375 60.32421875 C-31.86033445 71.47911227 -38.11453518 82.36713618 -45 93 C-40.05 93.33 -35.1 93.66 -30 94 C-30 94.33 -30 94.66 -30 95 C-37.26 95 -44.52 95 -52 95 C-48.35333643 85.88334107 -43.18442172 77.56722086 -38.18579102 69.13964844 C-33.74442745 61.62514916 -29.46860114 54.01857661 -25.20288086 46.40332031 C-24.67057861 45.45553711 -24.13827637 44.50775391 -23.58984375 43.53125 C-23.11409912 42.68111328 -22.63835449 41.83097656 -22.14819336 40.95507812 C-21 39 -21 39 -20 38 C-19.979375 37.05125 -19.95875 36.1025 -19.9375 35.125 C-19.31592129 30.10057213 -16.1201263 26.6430901 -13.10546875 22.74609375 C-10.92556156 19.90291239 -8.95894673 16.99784882 -7 14 C-7.56509277 14.57556641 -8.13018555 15.15113281 -8.71240234 15.74414062 C-11.26142102 18.33458544 -13.81807556 20.91735937 -16.375 23.5 C-17.26445312 24.40621094 -18.15390625 25.31242187 -19.0703125 26.24609375 C-19.92109375 27.10332031 -20.771875 27.96054688 -21.6484375 28.84375 C-22.43395996 29.63974609 -23.21948242 30.43574219 -24.02880859 31.25585938 C-26 33 -26 33 -28 33 C-28 33.66 -28 34.32 -28 35 C-28.66 35 -29.32 35 -30 35 C-30.33 35.99 -30.66 36.98 -31 38 C-31.66 38 -32.32 38 -33 38 C-33 38.66 -33 39.32 -33 40 C-34.27539062 41.25415039 -34.27539062 41.25415039 -36.15625 42.78515625 C-42.63305751 48.29244165 -48.51465793 54.4088451 -54.5 60.4375 C-55.71591114 61.6584369 -56.93205516 62.87914192 -58.1484375 64.09960938 C-61.10164966 67.06374013 -64.05169398 70.03098958 -67 73 C-67.99 72.67 -68.98 72.34 -70 72 C-69.34 71.01 -68.68 70.02 -68 69 C-67.01 69 -66.02 69 -65 69 C-64.67 67.68 -64.34 66.36 -64 65 C-62.02 64.505 -62.02 64.505 -60 64 C-60 63.34 -60 62.68 -60 62 C-59.34 62 -58.68 62 -58 62 C-57.67 59.36 -57.34 56.72 -57 54 C-62.71723534 58.1069129 -62.71723534 58.1069129 -67.875 62.875 C-68.57625 63.57625 -69.2775 64.2775 -70 65 C-70.66 65 -71.32 65 -72 65 C-72 65.66 -72 66.32 -72 67 C-72.66 66.67 -73.32 66.34 -74 66 C-73.28199219 65.28457031 -72.56398437 64.56914062 -71.82421875 63.83203125 C-70.00377522 62.00655192 -68.19306481 60.17128845 -66.39453125 58.32421875 C-65.11642578 57.01904297 -65.11642578 57.01904297 -63.8125 55.6875 C-62.95269531 54.80449219 -62.09289062 53.92148438 -61.20703125 53.01171875 C-59 51 -59 51 -57 51 C-56.67 50.01 -56.34 49.02 -56 48 C-55.34 48 -54.68 48 -54 48 C-53.5978125 47.1028125 -53.5978125 47.1028125 -53.1875 46.1875 C-52.00082594 44.00152146 -50.90400887 42.58667406 -49 41 C-48.34 41 -47.68 41 -47 41 C-46.67 40.01 -46.34 39.02 -46 38 C-45.34 38 -44.68 38 -44 38 C-43.67 37.01 -43.34 36.02 -43 35 C-42.34 35 -41.68 35 -41 35 C-40.67 34.01 -40.34 33.02 -40 32 C-39.34 32 -38.68 32 -38 32 C-37.67 31.01 -37.34 30.02 -37 29 C-35.0625 26.8125 -35.0625 26.8125 -33 25 C-32.34 25 -31.68 25 -31 25 C-31 24.34 -31 23.68 -31 23 C-29.54443359 21.56787109 -29.54443359 21.56787109 -27.5234375 19.8984375 C-22.97736603 16.03357551 -18.80254016 11.88091802 -14.625 7.625 C-13.22367253 6.19824009 -11.8201365 4.77364493 -10.4140625 3.3515625 C-9.50068115 2.42077881 -9.50068115 2.42077881 -8.56884766 1.47119141 C-5.53275987 -1.37590866 -3.8944534 -0.92237054 0 0 Z " fill="#0C1F10" transform="translate(314,138)"/>
<path d="M0 0 C0.33 0 0.66 0 1 0 C1.30569283 4.11229637 0.59597971 6.24213405 -1.625 9.6875 C-2.17414063 10.55890625 -2.72328125 11.4303125 -3.2890625 12.328125 C-3.85367188 13.20984375 -4.41828125 14.0915625 -5 15 C-8.03992556 19.95741707 -10.99548535 24.94034074 -13.75 30.0625 C-16.79118207 35.70353165 -20.03548545 41.21502819 -23.30957031 46.72290039 C-26.30375787 51.77067117 -29.14655269 56.86379484 -32 62 C-24.08 62 -16.16 62 -8 62 C-5 69 -5 69 -5.0703125 71.68359375 C-6.21042451 74.524293 -7.62915276 75.99352351 -9.875 78.0625 C-12.01579671 80.05715376 -13.90994816 81.87612486 -15.6328125 84.24609375 C-16.08398438 84.82488281 -16.53515625 85.40367187 -17 86 C-17.66 86 -18.32 86 -19 86 C-19.38285156 86.86612915 -19.38285156 86.86612915 -19.7734375 87.74975586 C-21.12787296 90.23459495 -22.66382735 91.96679676 -24.625 94.00390625 C-25.68460937 95.11475586 -25.68460937 95.11475586 -26.765625 96.24804688 C-27.50296875 97.01181641 -28.2403125 97.77558594 -29 98.5625 C-30.46027697 100.08277087 -31.91869244 101.60483255 -33.375 103.12890625 C-34.02210938 103.79994385 -34.66921875 104.47098145 -35.3359375 105.16235352 C-37.17416433 107.10164262 -37.17416433 107.10164262 -39 110 C-39.66 110 -40.32 110 -41 110 C-41.39445312 110.88945312 -41.39445312 110.88945312 -41.796875 111.796875 C-43.05402509 114.09892907 -44.33587918 115.47383383 -46.25 117.25 C-49.43354025 120.32786257 -52.0090158 123.58794525 -54.60546875 127.1640625 C-56.51626151 129.67967201 -58.74075665 131.79586014 -61 134 C-62.83541517 136.12668757 -64.65042826 138.26803035 -66.44921875 140.42578125 C-66.96097656 140.94527344 -67.47273438 141.46476563 -68 142 C-68.66 142 -69.32 142 -70 142 C-70 142.66 -70 143.32 -70 144 C-70.66 144 -71.32 144 -72 144 C-72.04125 144.886875 -72.0825 145.77375 -72.125 146.6875 C-73.29804868 151.12832715 -75.2753615 152.42140412 -79 155 C-81.875 156.3125 -81.875 156.3125 -84 157 C-82.6685435 154.121582 -81.16701678 151.80803749 -79.12890625 149.3828125 C-78.27594971 148.35957886 -78.27594971 148.35957886 -77.40576172 147.31567383 C-76.79748535 146.59275146 -76.18920898 145.8698291 -75.5625 145.125 C-71.08179757 139.74941991 -66.65980278 134.34554997 -62.375 128.8125 C-58.14538121 123.36503866 -53.72039386 118.11657488 -49.20532227 112.90429688 C-45.91176633 109.09337482 -42.75907512 105.20849652 -39.703125 101.203125 C-36.96043686 97.65524401 -34.09445835 94.20928241 -31.24609375 90.74609375 C-29.18253016 88.22316297 -27.14943552 85.67934911 -25.125 83.125 C-21.38389922 78.42406124 -17.5080667 73.84517441 -13.59228516 69.28955078 C-11.02789547 66.3299713 -11.02789547 66.3299713 -9 63 C-19.56 63 -30.12 63 -41 63 C-38.74987521 57.37468803 -38.74987521 57.37468803 -36.86450195 54.56176758 C-36.44679031 53.93373734 -36.02907867 53.30570709 -35.59870911 52.65864563 C-35.14976791 51.99398788 -34.70082672 51.32933014 -34.23828125 50.64453125 C-33.76939987 49.94285324 -33.30051849 49.24117523 -32.81742859 48.51823425 C-31.32008877 46.28007208 -29.81628132 44.04633784 -28.3125 41.8125 C-27.32056325 40.33034594 -26.32902295 38.84792648 -25.33789062 37.36523438 C-20.770037 30.54240837 -16.16582707 23.75108072 -11.43286133 17.04125977 C-9.47014195 14.24516219 -7.57460623 11.41017734 -5.6875 8.5625 C-5.03136719 7.57378906 -4.37523437 6.58507812 -3.69921875 5.56640625 C-3.13847656 4.71949219 -2.57773437 3.87257812 -2 3 C-1.34 2.01 -0.68 1.02 0 0 Z " fill="#3E7258" transform="translate(294,171)"/>
<path d="M0 0 C0.66 0.99 1.32 1.98 2 3 C1.34 3 0.68 3 0 3 C3.3563491 7.87787526 3.3563491 7.87787526 7.3125 12.25 C9 14 9 14 9 17 C8.34 17.99 7.68 18.98 7 20 C6.73058594 20.76441406 6.46117187 21.52882813 6.18359375 22.31640625 C4.68965453 25.70365459 2.49353311 28.19974776 0.0625 30.9375 C-3.8722125 35.47480859 -7.69095836 40.0692119 -11.375 44.8125 C-15.96883171 50.718498 -20.66067372 56.5375961 -25.40966797 62.31958008 C-28.65789158 66.28991588 -31.7413836 70.33307194 -34.7097168 74.51806641 C-35.13551025 75.00710449 -35.56130371 75.49614258 -36 76 C-36.66 76 -37.32 76 -38 76 C-38.60744571 71.03602957 -36.47397247 67.7830931 -34 63.6875 C-33.16477162 62.25707035 -32.3328208 60.82472266 -31.50390625 59.390625 C-31.08254395 58.66166016 -30.66118164 57.93269531 -30.22705078 57.18164062 C-28.34025433 53.82700213 -26.63162535 50.39246193 -24.9375 46.9375 C-21.97276597 40.90933115 -18.89101914 34.95868098 -15.70092773 29.04663086 C-13.73269962 25.39617399 -11.83660688 21.71842254 -10 18 C-8.68 18 -7.36 18 -6 18 C-5.9071875 16.329375 -5.9071875 16.329375 -5.8125 14.625 C-5.16800296 9.17607052 -2.63164357 4.73890059 0 0 Z " fill="#5ED97A" transform="translate(234,267)"/>
<path d="M0 0 C0.721875 0.2475 1.44375 0.495 2.1875 0.75 C3.0800743 16.58492925 -5.26801835 29.12435472 -13.29125977 42.20751953 C-14.80305971 44.73422224 -16.22883842 47.29088366 -17.6328125 49.87890625 C-18.15665527 50.8436084 -18.68049805 51.80831055 -19.22021484 52.80224609 C-20.70840178 55.55728582 -22.19118399 58.31514491 -23.671875 61.07421875 C-29.67283445 72.22911227 -35.92703518 83.11713618 -42.8125 93.75 C-37.8625 94.08 -32.9125 94.41 -27.8125 94.75 C-27.8125 95.08 -27.8125 95.41 -27.8125 95.75 C-35.0725 95.75 -42.3325 95.75 -49.8125 95.75 C-46.16583643 86.63334107 -40.99692172 78.31722086 -35.99829102 69.88964844 C-31.55692745 62.37514916 -27.28110114 54.76857661 -23.01538086 47.15332031 C-22.48307861 46.20553711 -21.95077637 45.25775391 -21.40234375 44.28125 C-20.92659912 43.43111328 -20.45085449 42.58097656 -19.96069336 41.70507812 C-18.8125 39.75 -18.8125 39.75 -17.8125 38.75 C-17.791875 37.80125 -17.77125 36.8525 -17.75 35.875 C-16.84418546 28.67303197 -10.49626409 22.58366869 -5.8125 17.375 C-3.30746399 14.63715602 -3.30746399 14.63715602 -3.8125 9.75 C-7.1125 10.08 -10.4125 10.41 -13.8125 10.75 C-4.58598726 -0.40764331 -4.58598726 -0.40764331 0 0 Z " fill="#080910" transform="translate(311.8125,137.25)"/>
<path d="M0 0 C0.66 0.33 1.32 0.66 2 1 C0.35 2.98 -1.3 4.96 -3 7 C-0.77090129 7.02714735 1.45829367 7.04646254 3.6875 7.0625 C4.92886719 7.07410156 6.17023438 7.08570313 7.44921875 7.09765625 C10.46878686 7.01460982 13.0598087 6.58803826 16 6 C16.66 6.33 17.32 6.66 18 7 C20.0307477 7.15411106 22.06606421 7.24982453 24.1015625 7.31640625 C25.31328125 7.35830078 26.525 7.40019531 27.7734375 7.44335938 C29.04445312 7.48267578 30.31546875 7.52199219 31.625 7.5625 C32.90375 7.60568359 34.1825 7.64886719 35.5 7.69335938 C38.66655348 7.79969886 41.83318753 7.90172833 45 8 C46.09178911 11.27536732 45.93042848 12.04413619 45.00390625 15.23046875 C44.77509766 16.03291016 44.54628906 16.83535156 44.31054688 17.66210938 C44.06369141 18.49548828 43.81683594 19.32886719 43.5625 20.1875 C43.31951172 21.03248047 43.07652344 21.87746094 42.82617188 22.74804688 C42.22506507 24.8342411 41.61352166 26.91742301 41 29 C40.01 29 39.02 29 38 29 C38.66666667 26.33333333 39.33333333 23.66666667 40 21 C38.25928223 21.0314209 38.25928223 21.0314209 36.48339844 21.06347656 C32.17476762 21.13591807 27.86619055 21.18181471 23.55712891 21.21972656 C21.69277899 21.23983261 19.82849206 21.2671218 17.96435547 21.30175781 C15.28337052 21.35032121 12.60321977 21.37297838 9.921875 21.390625 C9.08944275 21.41127014 8.2570105 21.43191528 7.39935303 21.45318604 C1.61518014 21.45542501 1.61518014 21.45542501 -1.44433594 19.19042969 C-4.06502383 15.500409 -6 11.97428642 -6 7.375 C-4.6488933 4.16612159 -2.5665687 2.30333089 0 0 Z " fill="#040407" transform="translate(187,256)"/>
<path d="M0 0 C0.33 0 0.66 0 1 0 C1.30569283 4.11229637 0.59597971 6.24213405 -1.625 9.6875 C-2.17414063 10.55890625 -2.72328125 11.4303125 -3.2890625 12.328125 C-3.85367188 13.20984375 -4.41828125 14.0915625 -5 15 C-8.03992556 19.95741707 -10.99548535 24.94034074 -13.75 30.0625 C-16.81307424 35.74413903 -20.08887135 41.2898685 -23.37548828 46.84375 C-26.33548282 51.85140424 -29.21424404 56.89278075 -32 62 C-34.64 62 -37.28 62 -40 62 C-36.38926653 52.19378835 -29.44469607 43.62241785 -23.5625 35.0625 C-22.23913597 33.1292124 -20.916215 31.19562144 -19.59375 29.26171875 C-18.96984375 28.3495459 -18.3459375 27.43737305 -17.703125 26.49755859 C-13.66706569 20.5788535 -9.70971135 14.60775356 -5.78125 8.6171875 C-5.41056396 8.05467285 -5.03987793 7.4921582 -4.65795898 6.91259766 C-3.62478013 5.34452367 -2.59546789 3.77390401 -1.56640625 2.203125 C-1.04949219 1.47609375 -0.53257812 0.7490625 0 0 Z " fill="#334352" transform="translate(294,171)"/>
<path d="M0 0 C0.495 0.99 0.495 0.99 1 2 C0.67 2.99 0.34 3.98 0 5 C-0.66 5 -1.32 5 -2 5 C-2 5.99 -2 6.98 -2 8 C-2.66 8 -3.32 8 -4 8 C-4.2475 8.721875 -4.495 9.44375 -4.75 10.1875 C-6.11254204 13.25321959 -7.85370342 15.43829118 -10 18 C-10.33 18.66 -10.66 19.32 -11 20 C-10.34 20 -9.68 20 -9 20 C-9.61520275 23.99881788 -11.60268669 26.80358226 -14 30 C-14.66 30 -15.32 30 -16 30 C-16.33 30.99 -16.66 31.98 -17 33 C-19.0390625 34.10546875 -19.0390625 34.10546875 -21.625 35.1875 C-26.45286016 37.45335734 -29.17160049 40.06415465 -32.4609375 44.1953125 C-34.35007357 46.41049235 -36.39025476 47.73466898 -39 49 C-39.99 48.34 -40.98 47.68 -42 47 C-41.505 44.03 -41.505 44.03 -41 41 C-40.67 41.66 -40.34 42.32 -40 43 C-39.34 43 -38.68 43 -38 43 C-37.75378906 42.45214844 -37.50757813 41.90429688 -37.25390625 41.33984375 C-33.15638232 33.69368539 -27.67402586 27.79317271 -19.8828125 24.046875 C-16.19819746 21.99816788 -15.26795599 18.80386796 -14 15 C-13.34 15 -12.68 15 -12 15 C-12 14.34 -12 13.68 -12 13 C-10.87588295 11.84181879 -9.74425662 10.69008608 -8.578125 9.57421875 C-5.54257642 6.54618391 -2.7963423 3.24762521 0 0 Z " fill="#0A4525" transform="translate(236,300)"/>
<path d="M0 0 C1.19625 0.12375 2.3925 0.2475 3.625 0.375 C4.12 2.85 4.12 2.85 4.625 5.375 C4.04830566 5.62427246 3.47161133 5.87354492 2.87744141 6.13037109 C0.30419372 7.55226755 -1.37183166 9.17699522 -3.4140625 11.2890625 C-4.53167969 12.42988281 -4.53167969 12.42988281 -5.671875 13.59375 C-6.82429688 14.78484375 -6.82429688 14.78484375 -8 16 C-9.52921728 17.58002184 -11.06284633 19.15578974 -12.6015625 20.7265625 C-13.27783691 21.42604004 -13.95411133 22.12551758 -14.65087891 22.84619141 C-16.375 24.375 -16.375 24.375 -18.375 24.375 C-18.375 25.035 -18.375 25.695 -18.375 26.375 C-19.035 26.375 -19.695 26.375 -20.375 26.375 C-20.705 27.365 -21.035 28.355 -21.375 29.375 C-22.035 29.375 -22.695 29.375 -23.375 29.375 C-23.375 30.035 -23.375 30.695 -23.375 31.375 C-25.025 31.705 -26.675 32.035 -28.375 32.375 C-28.375 31.715 -28.375 31.055 -28.375 30.375 C-29.365 30.045 -30.355 29.715 -31.375 29.375 C-28.19773508 25.56228209 -24.975001 21.91983529 -21.4375 18.4375 C-18.7551163 15.79599072 -16.20940951 13.10030904 -13.75 10.25 C-13.17894531 9.59773437 -12.60789062 8.94546875 -12.01953125 8.2734375 C-10.95568214 7.04533615 -9.90989595 5.8012496 -8.88671875 4.5390625 C-6.07676333 1.31253687 -4.21170711 0.01480389 0 0 Z " fill="#102C16" transform="translate(304.375,146.625)"/>
<path d="M0 0 C0 3.80211506 -1.08148589 4.75845985 -3.375 7.75 C-6.67852957 12.17021563 -9.83022857 16.64793807 -12.875 21.25 C-13.30095459 21.89267822 -13.72690918 22.53535645 -14.16577148 23.19750977 C-15.4453406 25.13069076 -16.72274138 27.06529196 -18 29 C-21.31837814 34.01010032 -24.65316282 39.00886792 -28 44 C-28.35652649 44.53220154 -28.71305298 45.06440308 -29.0803833 45.61273193 C-31.61124867 49.38975082 -34.14811099 53.16265903 -36.69070435 56.93179321 C-37.56213836 58.22514241 -38.43199756 59.51955411 -39.30026245 60.81503296 C-40.5292108 62.64785678 -41.76389924 64.47668248 -43 66.3046875 C-44.0828125 67.9131958 -44.0828125 67.9131958 -45.1875 69.55419922 C-47 72 -47 72 -49 73 C-49 71.35 -49 69.7 -49 68 C-48.34 68 -47.68 68 -47 68 C-47 67.34 -47 66.68 -47 66 C-45.66666667 64.66666667 -44.33333333 63.33333333 -43 62 C-42.67 61.01 -42.34 60.02 -42 59 C-41.34 59 -40.68 59 -40 59 C-40 57.35 -40 55.7 -40 54 C-39.34 54 -38.68 54 -38 54 C-38 53.34 -38 52.68 -38 52 C-37.01 52 -36.02 52 -35 52 C-35.33 50.35 -35.66 48.7 -36 47 C-35.01 47 -34.02 47 -33 47 C-33 45.35 -33 43.7 -33 42 C-32.2575 41.79375 -31.515 41.5875 -30.75 41.375 C-27.1575986 39.5787993 -25.91690463 37.47882691 -24 34 C-24 33.01 -24 32.02 -24 31 C-25.65 30.34 -27.3 29.68 -29 29 C-28.67 28.34 -28.34 27.68 -28 27 C-27.34 27 -26.68 27 -26 27 C-26 26.34 -26 25.68 -26 25 C-24.625 23.375 -24.625 23.375 -23 22 C-22.34 22 -21.68 22 -21 22 C-21 21.34 -21 20.68 -21 20 C-19.70703125 18.73046875 -19.70703125 18.73046875 -17.8125 17.1875 C-11.50477121 11.84581976 -5.79990037 5.87947217 0 0 Z " fill="#6BD787" transform="translate(307,151)"/>
<path d="M0 0 C12.21 0 24.42 0 37 0 C35 5 35 5 33 10 C32.505 9.01 32.505 9.01 32 8 C22.1 8 12.2 8 2 8 C0 3 0 3 0 0 Z " fill="#3E575E" transform="translate(204,254)"/>
<path d="M0 0 C1 2 1 2 0.3125 4.5 C-1.20787371 7.39594993 -2.14041682 7.65957039 -5 9 C-6.1500831 10.96672915 -6.1500831 10.96672915 -7 13 C-7.66 13.66 -8.32 14.32 -9 15 C-9.3403125 16.5778125 -9.3403125 16.5778125 -9.6875 18.1875 C-10.76694512 22.30129085 -13.07005042 24.34812746 -16.1328125 27.17578125 C-18.04169206 29.04073262 -19.56126619 30.96575098 -21.125 33.125 C-23.5063076 36.40479569 -26.09319099 39.16408877 -29 42 C-30.83541517 44.12668757 -32.65042826 46.26803035 -34.44921875 48.42578125 C-35.21685547 49.20501953 -35.21685547 49.20501953 -36 50 C-36.66 50 -37.32 50 -38 50 C-38 50.66 -38 51.32 -38 52 C-38.66 52 -39.32 52 -40 52 C-40.04125 52.886875 -40.0825 53.77375 -40.125 54.6875 C-41.29804868 59.12832715 -43.2753615 60.42140412 -47 63 C-49.875 64.3125 -49.875 64.3125 -52 65 C-50.6685435 62.121582 -49.16701678 59.80803749 -47.12890625 57.3828125 C-46.56026855 56.70065674 -45.99163086 56.01850098 -45.40576172 55.31567383 C-44.79748535 54.59275146 -44.18920898 53.8698291 -43.5625 53.125 C-39.08179757 47.74941991 -34.65980278 42.34554997 -30.375 36.8125 C-26.14765425 31.36796617 -21.72630245 26.12111368 -17.21191406 20.91308594 C-13.85349442 17.02915422 -10.64830454 13.06113545 -7.53515625 8.9765625 C-5.13457856 5.88574237 -2.57225756 2.9486855 0 0 Z " fill="#376758" transform="translate(262,263)"/>
<path d="M0 0 C1.32 0.33 2.64 0.66 4 1 C3.21654285 2.17219543 2.42297164 3.33763668 1.625 4.5 C1.18414062 5.1496875 0.74328125 5.799375 0.2890625 6.46875 C-0.13632813 6.9740625 -0.56171875 7.479375 -1 8 C-1.66 8 -2.32 8 -3 8 C-3.21527344 8.68707031 -3.43054688 9.37414062 -3.65234375 10.08203125 C-5.39505812 13.85538671 -7.82519477 16.5926978 -10.5625 19.6875 C-14.14919703 23.58605233 -14.14919703 23.58605233 -17 28 C-17.66 28 -18.32 28 -19 28 C-19.309375 28.8353125 -19.309375 28.8353125 -19.625 29.6875 C-21.55000774 32.92501302 -24.03850902 34.68231141 -27 37 C-27 36.01 -27 35.02 -27 34 C-28.32 34 -29.64 34 -31 34 C-31 33.34 -31 32.68 -31 32 C-31.99 31.67 -32.98 31.34 -34 31 C-34 28.69 -34 26.38 -34 24 C-33.34 23.67 -32.68 23.34 -32 23 C-32.33 24.32 -32.66 25.64 -33 27 C-31.32171592 27.96624167 -31.32171592 27.96624167 -29 28 C-25.63692285 25.57858445 -23.30190493 23.4528574 -21 20 C-20.34 20 -19.68 20 -19 20 C-18.75636719 19.37480469 -18.51273438 18.74960937 -18.26171875 18.10546875 C-16.69326649 15.48814439 -15.66726297 15.24115783 -12.8125 14.3125 C-7.16103187 12.03000075 -4.1537449 8.09667702 -1 3 C-0.67 2.01 -0.34 1.02 0 0 Z " fill="#0F351F" transform="translate(227,320)"/>
<path d="M0 0 C1.0828125 0.37125 1.0828125 0.37125 2.1875 0.75 C2.92715331 13.87199766 -2.24500092 23.70706808 -8.8125 34.75 C-10.5625 36.6953125 -10.5625 36.6953125 -11.8125 37.75 C-11.18549912 33.73719439 -9.88921169 30.24596428 -8.3359375 26.51953125 C-7.56924523 24.66771427 -7.56924523 24.66771427 -8.8125 22.75 C-7.97711827 20.03500936 -7.293043 18.19357815 -5.1875 16.25 C-3.24939614 14.47484698 -3.24939614 14.47484698 -3.8125 9.75 C-7.1125 10.08 -10.4125 10.41 -13.8125 10.75 C-4.58598726 -0.40764331 -4.58598726 -0.40764331 0 0 Z M-6.8125 21.75 C-5.8125 23.75 -5.8125 23.75 -5.8125 23.75 Z " fill="#020504" transform="translate(311.8125,137.25)"/>
<path d="M0 0 C0.93423645 3.01031744 1.04449911 3.86650268 0 7 C0.66 7 1.32 7 2 7 C1.41980487 10.36513174 0.36548527 11.63451473 -2 14 C-2.71447643 16.10332891 -2.71447643 16.10332891 -3 18 C-2.01 18.33 -1.02 18.66 0 19 C-4.19007433 24.45468429 -4.19007433 24.45468429 -5.93554688 26.7175293 C-8.02270422 29.42352732 -10.10065312 32.13408237 -12.15234375 34.8671875 C-13.06693359 36.07761719 -13.06693359 36.07761719 -14 37.3125 C-14.53625 38.03050781 -15.0725 38.74851562 -15.625 39.48828125 C-16.07875 39.98714844 -16.5325 40.48601562 -17 41 C-17.66 41 -18.32 41 -19 41 C-19.6074295 36.03616204 -17.47422802 32.78298134 -15 28.6875 C-11.65496799 22.96308107 -8.49782911 17.19569361 -5.5625 11.25 C-5.23314453 10.58315186 -4.90378906 9.91630371 -4.56445312 9.22924805 C-3.70725397 7.48733526 -2.8534552 5.7437502 -2 4 C-1.33503347 2.66581795 -0.66935619 1.33198518 0 0 Z " fill="#62C67C" transform="translate(215,302)"/>
<path d="M0 0 C1.33332095 2.6666419 0.67102033 4.16680303 0 7 C0.66 7 1.32 7 2 7 C2.33 7.33 2.66 7.66 3 8 C3.66 6.02 4.32 4.04 5 2 C7.97 2.495 7.97 2.495 11 3 C8.24322927 8.03893258 4.6703516 12.37063523 1.0625 16.8125 C0.44181641 17.60076172 -0.17886719 18.38902344 -0.81835938 19.20117188 C-1.72618164 20.31782227 -1.72618164 20.31782227 -2.65234375 21.45703125 C-3.19882568 22.13741455 -3.74530762 22.81779785 -4.30834961 23.51879883 C-6 25 -6 25 -10 25 C-9.6875 22.125 -9.6875 22.125 -9 19 C-8.01 18.34 -7.02 17.68 -6 17 C-5.67 16.01 -5.34 15.02 -5 14 C-5.99 14.33 -6.98 14.66 -8 15 C-7.34 12.36 -6.68 9.72 -6 7 C-5.34 7 -4.68 7 -4 7 C-3.566875 5.5459375 -3.566875 5.5459375 -3.125 4.0625 C-2 1 -2 1 0 0 Z " fill="#68E285" transform="translate(222,295)"/>
<path d="M0 0 C1.5625 1.1875 1.5625 1.1875 3 3 C2.90814938 6.17905184 2.29218136 7.64820316 0.2578125 10.09765625 C-0.44601562 10.74605469 -1.14984375 11.39445313 -1.875 12.0625 C-4.01579671 14.05715376 -5.90994816 15.87612486 -7.6328125 18.24609375 C-8.08398438 18.82488281 -8.53515625 19.40367187 -9 20 C-9.66 20 -10.32 20 -11 20 C-11.2475 20.598125 -11.495 21.19625 -11.75 21.8125 C-13.16370012 24.28647521 -14.65055383 25.43370255 -17 27 C-17.33 26.34 -17.66 25.68 -18 25 C-18.66 25.33 -19.32 25.66 -20 26 C-19.40503246 22.67258892 -18.29522827 20.82909592 -16.0625 18.3125 C-15.53785156 17.71050781 -15.01320313 17.10851562 -14.47265625 16.48828125 C-13 15 -13 15 -11 14 C-10.62875 13.154375 -10.2575 12.30875 -9.875 11.4375 C-7.34607459 6.80113674 -3.83002348 3.58439252 0 0 Z " fill="#3E565D" transform="translate(286,237)"/>
<path d="M0 0 C1.48873294 2.36445821 2.00636486 3.73904068 1.9375 6.5625 C0.67130619 9.85460392 -0.96432032 10.21818801 -4 12 C-5.20101924 13.30247521 -6.36506002 14.63955885 -7.5 16 C-10.07160397 19.06116534 -12.34794091 21.22930468 -16 23 C-16.99 22.34 -17.98 21.68 -19 21 C-18.67 19.02 -18.34 17.04 -18 15 C-17.67 15.66 -17.34 16.32 -17 17 C-16.34 17 -15.68 17 -15 17 C-14.64035156 16.18402344 -14.64035156 16.18402344 -14.2734375 15.3515625 C-12.68102426 12.41097118 -10.73150847 9.97139417 -8.625 7.375 C-7.85414063 6.41335938 -7.08328125 5.45171875 -6.2890625 4.4609375 C-4.21177535 2.22767657 -2.80269508 1.08780403 0 0 Z " fill="#075126" transform="translate(213,326)"/>
<path d="M0 0 C0.33 0 0.66 0 1 0 C1.30569283 4.11229637 0.59597971 6.24213405 -1.625 9.6875 C-2.17414063 10.55890625 -2.72328125 11.4303125 -3.2890625 12.328125 C-3.85367187 13.20984375 -4.41828125 14.0915625 -5 15 C-9.22198567 21.88508433 -13.18390615 28.88203771 -17 36 C-20 36 -20 36 -22 35 C-22.33 36.32 -22.66 37.64 -23 39 C-23.66 39 -24.32 39 -25 39 C-23.74281624 35.60337875 -22.31118943 32.74631667 -20.2421875 29.77734375 C-19.43261597 28.60655273 -19.43261597 28.60655273 -18.60668945 27.41210938 C-18.03523193 26.59548828 -17.46377441 25.77886719 -16.875 24.9375 C-15.69866862 23.23866204 -14.522887 21.53944329 -13.34765625 19.83984375 C-12.77547363 19.01468262 -12.20329102 18.18952148 -11.61376953 17.33935547 C-8.34574648 12.60195806 -5.17502993 7.80004524 -2 3 C-1.34 2.01 -0.68 1.02 0 0 Z " fill="#2F494D" transform="translate(294,171)"/>
<path d="M0 0 C1.13671875 1.58203125 1.13671875 1.58203125 2 4 C1.20703125 7.19921875 1.20703125 7.19921875 -0.1875 10.6875 C-0.85845703 12.42580078 -0.85845703 12.42580078 -1.54296875 14.19921875 C-3 17 -3 17 -6 18 C-6 19.32 -6 20.64 -6 22 C-6.66 22 -7.32 22 -8 22 C-8.103125 22.53625 -8.20625 23.0725 -8.3125 23.625 C-9.57060084 27.97116653 -11.36881145 32.15820026 -15 35 C-15.66 35 -16.32 35 -17 35 C-17.33 35.66 -17.66 36.32 -18 37 C-18.33 36.34 -18.66 35.68 -19 35 C-18.30322266 33.32006836 -18.30322266 33.32006836 -17.1640625 31.33984375 C-16.55691406 30.2734668 -16.55691406 30.2734668 -15.9375 29.18554688 C-15.504375 28.44369141 -15.07125 27.70183594 -14.625 26.9375 C-14.19960938 26.19177734 -13.77421875 25.44605469 -13.3359375 24.67773438 C-10.18025386 19.18025386 -10.18025386 19.18025386 -9 18 C-8.979375 17.05125 -8.95875 16.1025 -8.9375 15.125 C-8.23867791 9.14757537 -3.6147157 4.55338903 0 0 Z " fill="#0B0914" transform="translate(303,158)"/>
<path d="M0 0 C0.33 0.99 0.66 1.98 1 3 C1.99 3.33 2.98 3.66 4 4 C4.33 4.99 4.66 5.98 5 7 C2 9 2 9 -3 10 C11.85 10.495 11.85 10.495 27 11 C27 11.33 27 11.66 27 12 C14.46 12 1.92 12 -11 12 C-7.37613 7.77215167 -3.95773294 3.84132903 0 0 Z " fill="#63C980" transform="translate(214,242)"/>
<path d="M0 0 C2.5287352 2.05459735 3.86585863 3.27563658 4.46875 6.53125 C3.77037829 11.69920064 1.19568189 15.47713077 -1.5 19.875 C-2.02464844 20.75414062 -2.54929687 21.63328125 -3.08984375 22.5390625 C-4.38171237 24.70000638 -5.68519973 26.85295914 -7 29 C-8.23786784 25.28639647 -7.56030631 24.42252627 -6 20.9375 C-4.81138064 18.36665054 -4.81138064 18.36665054 -4 16 C-4.33 15.34 -4.66 14.68 -5 14 C-4.16735103 11.29389086 -3.5175012 9.45778952 -1.375 7.5625 C0.33119503 5.94678764 0.33119503 5.94678764 0.1875 2.8125 C0.125625 1.884375 0.06375 0.95625 0 0 Z M-3 13 C-2 15 -2 15 -2 15 Z " fill="#040606" transform="translate(308,146)"/>
<path d="M0 0 C0.33 0.66 0.66 1.32 1 2 C0.01 4.64 -0.98 7.28 -2 10 C5.26 10.33 12.52 10.66 20 11 C19.67 11.99 19.34 12.98 19 14 C18.505 13.505 18.505 13.505 18 13 C15.55391002 12.84019563 13.13268942 12.74070553 10.68359375 12.68359375 C9.95253922 12.66281265 9.22148468 12.64203156 8.46827698 12.62062073 C6.12478344 12.55504976 3.78117461 12.49620568 1.4375 12.4375 C-0.14779855 12.39432192 -1.73308529 12.35070787 -3.31835938 12.30664062 C-7.21212037 12.1993608 -11.10599772 12.0981151 -15 12 C-11.71536341 9.81024227 -8.79303725 9.00193437 -5 8 C-5.33 7.01 -5.66 6.02 -6 5 C-8.01508358 4.26676204 -8.01508358 4.26676204 -10 4 C-8 1 -8 1 -6.0546875 0.48828125 C-5.33539063 0.43027344 -4.61609375 0.37226563 -3.875 0.3125 C-2.59625 0.209375 -1.3175 0.10625 0 0 Z " fill="#6FE38B" transform="translate(223,241)"/>
<path d="M0 0 C1.125 3.75 1.125 3.75 0 6 C-1.66666667 7 -3.33333333 8 -5 9 C-5.33 9.66 -5.66 10.32 -6 11 C-6.99 11 -7.98 11 -9 11 C-9.33 11.99 -9.66 12.98 -10 14 C-11.43224591 15.1990896 -12.86869134 16.393748 -14.33203125 17.5546875 C-16.05426557 19.04702169 -17.43294172 20.61292331 -18.875 22.375 C-21.67572231 25.76534806 -24.81780683 28.51563874 -28.1640625 31.35546875 C-30.40632511 33.36396356 -32.23168831 35.56857143 -34 38 C-34.66 37.67 -35.32 37.34 -36 37 C-29.17554445 28.85635746 -21.59251861 21.48176677 -14.0625 14 C-12.69703255 12.63955682 -11.33179614 11.27888169 -9.96679688 9.91796875 C-6.64719114 6.6092969 -3.32446727 3.30378678 0 0 Z " fill="#77D98F" transform="translate(260,197)"/>
<path d="M0 0 C0.33 0.66 0.66 1.32 1 2 C0.27832031 3.76147461 0.27832031 3.76147461 -0.921875 5.90234375 C-1.3655542 6.70188477 -1.8092334 7.50142578 -2.26635742 8.32519531 C-3.0007605 9.61828613 -3.0007605 9.61828613 -3.75 10.9375 C-4.24282471 11.81889648 -4.73564941 12.70029297 -5.2434082 13.60839844 C-10.39873323 22.79410187 -15.67863812 31.90966418 -21 41 C-21.33 40.34 -21.66 39.68 -22 39 C-21.109375 36.8984375 -21.109375 36.8984375 -19.75 34.375 C-17.46335373 29.99279211 -15.63946344 25.65952766 -14 21 C-13.34 21 -12.68 21 -12 21 C-11.71125 20.030625 -11.4225 19.06125 -11.125 18.0625 C-10 15 -10 15 -8 14 C-7.28752268 12.3523962 -6.62599617 10.68236471 -6 9 C-5.34786461 7.65949948 -4.68620031 6.32338632 -4 5 C-3.34 5 -2.68 5 -2 5 C-2 3.68 -2 2.36 -2 1 C-1.34 0.67 -0.68 0.34 0 0 Z " fill="#020204" transform="translate(299,175)"/>
<path d="M0 0 C2.97 0.495 2.97 0.495 6 1 C1.72304016 6.94562221 -2.74040619 12.88255738 -8 18 C-8.66 18 -9.32 18 -10 18 C-10 18.66 -10 19.32 -10 20 C-10.66 20 -11.32 20 -12 20 C-11.40138258 17.64828869 -10.73075648 15.3140622 -10 13 C-9.34 12.67 -8.68 12.34 -8 12 C-7.525625 11.195625 -7.05125 10.39125 -6.5625 9.5625 C-5 7 -5 7 -2 5 C-0.79549696 2.44816596 -0.79549696 2.44816596 0 0 Z " fill="#3F565B" transform="translate(263,263)"/>
<path d="M0 0 C0.1546875 0.86625 0.1546875 0.86625 0.3125 1.75 C1.09881886 4.32340717 2.35191023 5.89680769 4 8 C4.55429688 7.566875 5.10859375 7.13375 5.6796875 6.6875 C6.40414062 6.130625 7.12859375 5.57375 7.875 5 C8.59429687 4.443125 9.31359375 3.88625 10.0546875 3.3125 C12 2 12 2 14 2 C14 2.66 14 3.32 14 4 C14.66 4.33 15.32 4.66 16 5 C15.34 5 14.68 5 14 5 C13.79375 5.556875 13.5875 6.11375 13.375 6.6875 C11.44999226 9.92501302 8.96149098 11.68231141 6 14 C6 13.01 6 12.02 6 11 C4.68 11 3.36 11 2 11 C2 10.34 2 9.68 2 9 C1.01 8.67 0.02 8.34 -1 8 C-1.04241723 5.66705225 -1.04092937 3.33297433 -1 1 C-0.67 0.67 -0.34 0.34 0 0 Z " fill="#082C17" transform="translate(194,343)"/>
<path d="M0 0 C0.66 0.66 1.32 1.32 2 2 C0.71937515 3.7074998 -0.61767557 5.37373596 -2 7 C-2.66 7 -3.32 7 -4 7 C-4 7.66 -4 8.32 -4 9 C-4.66 9 -5.32 9 -6 9 C-6.04125 9.886875 -6.0825 10.77375 -6.125 11.6875 C-7.29804868 16.12832715 -9.2753615 17.42140412 -13 20 C-15.875 21.3125 -15.875 21.3125 -18 22 C-16.27021872 17.85466616 -13.43889221 14.69891742 -10.5625 11.3125 C-10.07201172 10.71888672 -9.58152344 10.12527344 -9.07617188 9.51367188 C-5.36535218 5.12178406 -5.36535218 5.12178406 -2 4 C-0.79117904 1.99983534 -0.79117904 1.99983534 0 0 Z " fill="#2A6149" transform="translate(228,306)"/>
<path d="M0 0 C0.66 0.33 1.32 0.66 2 1 C1.03900391 1.94359375 1.03900391 1.94359375 0.05859375 2.90625 C-3.97837576 6.90110508 -7.98150299 10.88075918 -11.6875 15.1875 C-21.42110656 26.47848361 -21.42110656 26.47848361 -27 28 C-26.505 26.515 -26.505 26.515 -26 25 C-25.34 25 -24.68 25 -24 25 C-23.67 24.01 -23.34 23.02 -23 22 C-22.34 22 -21.68 22 -21 22 C-20.67 21.01 -20.34 20.02 -20 19 C-18.0625 16.8125 -18.0625 16.8125 -16 15 C-15.34 15 -14.68 15 -14 15 C-14 14.34 -14 13.68 -14 13 C-12.4609375 11.484375 -12.4609375 11.484375 -10.375 9.75 C-6.72639996 6.65323448 -3.34103014 3.42455589 0 0 Z " fill="#09130B" transform="translate(297,148)"/>
<path d="M0 0 C1.31767252 2.63534505 0.75847597 3.54582527 -0.125 6.3125 C-1.60576483 10.54325665 -3.43702862 13.16789455 -7 16 C-7.66 16 -8.32 16 -9 16 C-9.33 16.66 -9.66 17.32 -10 18 C-11.65 18 -13.3 18 -15 18 C-14.67 16.35 -14.34 14.7 -14 13 C-13.67 13.66 -13.34 14.32 -13 15 C-12.34 15 -11.68 15 -11 15 C-10.76539063 14.45859375 -10.53078125 13.9171875 -10.2890625 13.359375 C-8.6416356 10.34408456 -6.57346656 7.88815988 -4.375 5.25 C-3.55773437 4.26515625 -2.74046875 3.2803125 -1.8984375 2.265625 C-1.27195313 1.51796875 -0.64546875 0.7703125 0 0 Z " fill="#166F37" transform="translate(209,328)"/>
<path d="M0 0 C0 3.870558 -1.24194796 5.00218943 -3.5625 8.0625 C-6.43352753 11.9007721 -9.26014872 15.75421657 -12 19.6875 C-12.5775 20.51636719 -13.155 21.34523437 -13.75 22.19921875 C-14.1625 22.79347656 -14.575 23.38773438 -15 24 C-16.24546405 21.50907189 -15.7767578 20.58919267 -15 18 C-15.66 17.67 -16.32 17.34 -17 17 C-11.39 11.39 -5.78 5.78 0 0 Z " fill="#72D48A" transform="translate(307,151)"/>
<path d="M0 0 C0.99 0.33 1.98 0.66 3 1 C0.225761 5.73932495 -2.98993606 8.9613804 -7.1953125 12.484375 C-9.08324823 14.02542772 -9.08324823 14.02542772 -11 16 C-11.99 15.67 -12.98 15.34 -14 15 C-14.6875 12.9375 -14.6875 12.9375 -15 11 C-14.01 11.33 -13.02 11.66 -12 12 C-8.54563194 9.46209694 -6.37902903 7.56854354 -4 4 C-3.34 4 -2.68 4 -2 4 C-1.34 2.68 -0.68 1.36 0 0 Z " fill="#05401F" transform="translate(210,336)"/>
<path d="M0 0 C0.66 0 1.32 0 2 0 C0.62411965 3.70429324 -0.91890881 6.53151468 -3 10 C7.56 10 18.12 10 29 10 C28.34 11.32 27.68 12.64 27 14 C26.67 13.01 26.34 12.02 26 11 C24.69011108 11.05329468 24.69011108 11.05329468 23.35375977 11.10766602 C20.12424949 11.23662253 16.89460491 11.36097912 13.66479492 11.48217773 C12.26498319 11.53566026 10.86524096 11.59099434 9.46557617 11.64819336 C7.4577104 11.72992949 5.44955813 11.80453025 3.44140625 11.87890625 C1.62684937 11.94960327 1.62684937 11.94960327 -0.22436523 12.02172852 C-3 12 -3 12 -4 11 C-4.51983723 7.36113938 -3.97219245 5.95087332 -2.125 2.6875 C-1.42375 1.800625 -0.7225 0.91375 0 0 Z " fill="#70D48D" transform="translate(256,224)"/>
<path d="M0 0 C1.06640625 1.8125 1.06640625 1.8125 2 4 C0.32742516 8.72256426 -1.98278947 11.11584885 -6 14 C-6.66 14.66 -7.32 15.32 -8 16 C-8.56610454 11.16157528 -6.90828272 8.95917915 -4 5.1875 C-3.2575 4.21167969 -2.515 3.23585937 -1.75 2.23046875 C-1.1725 1.49441406 -0.595 0.75835937 0 0 Z " fill="#17322A" transform="translate(303,158)"/>
<path d="M0 0 C0.33 1.32 0.66 2.64 1 4 C-0.2065625 4.6496875 -0.2065625 4.6496875 -1.4375 5.3125 C-4.27846354 6.80474002 -4.27846354 6.80474002 -5 10 C-5.99 10.495 -5.99 10.495 -7 11 C-8.13350534 13.01669827 -8.13350534 13.01669827 -9 15 C-9.99 15 -10.98 15 -12 15 C-12 15.66 -12 16.32 -12 17 C-13.32 16.67 -14.64 16.34 -16 16 C-10.72 10.72 -5.44 5.44 0 0 Z " fill="#69CB7D" transform="translate(277,180)"/>
<path d="M0 0 C0.5 2 0.5 2 1 4 C1.28875 4.61875 1.5775 5.2375 1.875 5.875 C2 8 2 8 -0.375 11.0625 C-1.24125 12.031875 -2.1075 13.00125 -3 14 C-3.33 14.99 -3.66 15.98 -4 17 C-4.99 17 -5.98 17 -7 17 C-6.6875 14.125 -6.6875 14.125 -6 11 C-5.01 10.34 -4.02 9.68 -3 9 C-2.62599214 6.67284 -2.29235267 4.33882138 -2 2 C-1.34 1.34 -0.68 0.68 0 0 Z " fill="#60E87F" transform="translate(219,303)"/>
<path d="M0 0 C0.66 0.33 1.32 0.66 2 1 C0.87851562 2.30324219 0.87851562 2.30324219 -0.265625 3.6328125 C-1.26058656 4.79672979 -2.25536868 5.96080049 -3.25 7.125 C-3.74113281 7.69476563 -4.23226563 8.26453125 -4.73828125 8.8515625 C-7.78048381 12.42108017 -10.47618317 16.0460203 -13 20 C-14.125 16.25 -14.125 16.25 -13 14 C-12.34 14.33 -11.68 14.66 -11 15 C-10.9175 14.071875 -10.835 13.14375 -10.75 12.1875 C-9.85994874 8.40478213 -9.17259954 8.02693859 -6 6 C-4.31384218 4.35305515 -2.64429829 2.68873879 -1 1 C-0.67 0.67 -0.34 0.34 0 0 Z " fill="#72D590" transform="translate(263,259)"/>
<path d="M0 0 C11.55 0 23.1 0 35 0 C33 5 33 5 31 10 C29.77403961 6.32211882 30.15689923 5.21550387 31 1 C20.77 1 10.54 1 0 1 C0 0.67 0 0.34 0 0 Z " fill="#2A5F4C" transform="translate(206,254)"/>
<path d="M0 0 C0.66 0.66 1.32 1.32 2 2 C0.93401689 5.19794932 0.32281202 5.82463478 -2.1875 7.875 C-2.81140625 8.390625 -3.4353125 8.90625 -4.078125 9.4375 C-4.71234375 9.953125 -5.3465625 10.46875 -6 11 C-7.14672506 11.95726613 -8.29264286 12.91550068 -9.4375 13.875 C-10.283125 14.57625 -11.12875 15.2775 -12 16 C-11.45276317 12.62537285 -10.9451 10.91765 -9 8 C-8.01 8 -7.02 8 -6 8 C-6 7.34 -6 6.68 -6 6 C-5.34 5.67 -4.68 5.34 -4 5 C-3.67 4.01 -3.34 3.02 -3 2 C-2.01 1.34 -1.02 0.68 0 0 Z " fill="#103A19" transform="translate(307,147)"/>
<path d="M0 0 C0.99 0.66 1.98 1.32 3 2 C1.39676273 3.77168246 -0.20755139 5.54236892 -1.8125 7.3125 C-2.26431641 7.81201172 -2.71613281 8.31152344 -3.18164062 8.82617188 C-5.40219821 11.27364776 -7.63155925 13.69450785 -10 16 C-10.33 15.01 -10.66 14.02 -11 13 C-9.63671875 10.73828125 -9.63671875 10.73828125 -7.6875 8.3125 C-7.05199219 7.50425781 -6.41648438 6.69601562 -5.76171875 5.86328125 C-5.18035156 5.24839844 -4.59898437 4.63351562 -4 4 C-3.34 4 -2.68 4 -2 4 C-1.34 2.68 -0.68 1.36 0 0 Z " fill="#3B5756" transform="translate(246,285)"/>
<path d="M0 0 C0 3 0 3 -1.28515625 4.62573242 C-2.16494141 5.4819519 -2.16494141 5.4819519 -3.0625 6.35546875 C-3.69414062 6.97744141 -4.32578125 7.59941406 -4.9765625 8.24023438 C-5.64429688 8.88283203 -6.31203125 9.52542969 -7 10.1875 C-8.00160156 11.16879883 -8.00160156 11.16879883 -9.0234375 12.16992188 C-10.67578441 13.78686135 -12.33471601 15.39640491 -14 17 C-14.33 16.01 -14.66 15.02 -15 14 C-13.37660195 12.29115995 -11.70680947 10.62553283 -10 9 C-9.34 9 -8.68 9 -8 9 C-8 7.68 -8 6.36 -8 5 C-6.25 3.515625 -6.25 3.515625 -4 2.25 C-3.2575 1.82203125 -2.515 1.3940625 -1.75 0.953125 C-0.88375 0.48132813 -0.88375 0.48132813 0 0 Z " fill="#04300C" transform="translate(223,231)"/>
<path d="M0 0 C0.66 0 1.32 0 2 0 C0.34136495 4.32504836 -2.871041 7.09418825 -6.125 10.25 C-6.68832031 10.80429688 -7.25164062 11.35859375 -7.83203125 11.9296875 C-9.21686028 13.29104485 -10.60783204 14.64614859 -12 16 C-12.99 15.67 -13.98 15.34 -15 15 C-14.34 14.01 -13.68 13.02 -13 12 C-12.01 12 -11.02 12 -10 12 C-9.67 10.68 -9.34 9.36 -9 8 C-7.68 7.67 -6.36 7.34 -5 7 C-5 6.34 -5 5.68 -5 5 C-4.34 5 -3.68 5 -3 5 C-2.690625 4.360625 -2.38125 3.72125 -2.0625 3.0625 C-1 1 -1 1 0 0 Z " fill="#093913" transform="translate(259,195)"/>
<path d="M0 0 C9.57 0 19.14 0 29 0 C27.875 6.75 27.875 6.75 26 10 C24.91825838 6.63458162 25.07461831 5.70152678 26 2 C13.13 1.505 13.13 1.505 0 1 C0 0.67 0 0.34 0 0 Z " fill="#071712" transform="translate(206,263)"/>
<path d="M0 0 C0.99 0.33 1.98 0.66 3 1 C2.43152344 1.68964844 1.86304688 2.37929687 1.27734375 3.08984375 C-3.57264094 8.99241277 -8.3471181 14.94078081 -13 21 C-13.62890625 19.14453125 -13.62890625 19.14453125 -14 17 C-11.9375 14.6875 -11.9375 14.6875 -9 12 C-5.53811166 8.24458497 -2.45671131 4.50397073 0 0 Z " fill="#70D28D" transform="translate(279,238)"/>
<path d="M0 0 C0.33 0.66 0.66 1.32 1 2 C0.67 2.99 0.34 3.98 0 5 C-0.66 5 -1.32 5 -2 5 C-2 5.99 -2 6.98 -2 8 C-2.66 8 -3.32 8 -4 8 C-4.2475 8.763125 -4.495 9.52625 -4.75 10.3125 C-6.10995558 13.2364045 -7.31585826 14.30004356 -10 16 C-10.66 15.67 -11.32 15.34 -12 15 C-12 13 -12 13 -9.9375 10.875 C-9.48890625 10.44574219 -9.0403125 10.01648438 -8.578125 9.57421875 C-5.54257642 6.54618391 -2.7963423 3.24762521 0 0 Z " fill="#193C2C" transform="translate(236,300)"/>
<path d="M0 0 C0.93423645 3.01031744 1.04449911 3.86650268 0 7 C0.66 7 1.32 7 2 7 C1.60196439 9.88575819 1.20990931 10.82189513 -1.0625 12.75 C-1.701875 13.1625 -2.34125 13.575 -3 14 C-3.33 13.34 -3.66 12.68 -4 12 C-4.66 12.66 -5.32 13.32 -6 14 C-5.31113213 10.61108678 -4.01283514 7.81988387 -2.4375 4.75 C-1.75494141 3.41195313 -1.75494141 3.41195313 -1.05859375 2.046875 C-0.70925781 1.37140625 -0.35992187 0.6959375 0 0 Z " fill="#469957" transform="translate(215,302)"/>
<path d="M0 0 C1.134375 0.020625 2.26875 0.04125 3.4375 0.0625 C3.1075 0.7225 2.7775 1.3825 2.4375 2.0625 C1.7775 2.0625 1.1175 2.0625 0.4375 2.0625 C0.1075 3.3825 -0.2225 4.7025 -0.5625 6.0625 C-1.2225 6.0625 -1.8825 6.0625 -2.5625 6.0625 C-2.5625 6.7225 -2.5625 7.3825 -2.5625 8.0625 C-3.8825 7.4025 -5.2025 6.7425 -6.5625 6.0625 C-4.25951087 0.07472826 -4.25951087 0.07472826 0 0 Z " fill="#0E2011" transform="translate(303.5625,146.9375)"/>
<path d="M0 0 C0.66 0.33 1.32 0.66 2 1 C-0.06639839 8.15291751 -0.06639839 8.15291751 -3 10 C-5.6875 9.6875 -5.6875 9.6875 -8 9 C-7.04270084 7.87411986 -6.08412105 6.7493285 -5.125 5.625 C-4.59132812 4.99851563 -4.05765625 4.37203125 -3.5078125 3.7265625 C-2.38567993 2.44163349 -1.20628025 1.20628025 0 0 Z " fill="#64CD7E" transform="translate(223,233)"/>
<path d="M0 0 C1 4 1 4 0 6 C-2.5 7.5 -2.5 7.5 -5 9 C-5.33 9.66 -5.66 10.32 -6 11 C-6.99 11 -7.98 11 -9 11 C-9 11.66 -9 12.32 -9 13 C-9.99 12.67 -10.98 12.34 -12 12 C-8.04 8.04 -4.08 4.08 0 0 Z " fill="#6ED185" transform="translate(260,197)"/>
<path d="M0 0 C2.125 0.375 2.125 0.375 4 1 C2.49776416 5.20626034 -0.28550034 6.73900021 -4 9 C-4.66 8.67 -5.32 8.34 -6 8 C-2.25 2.25 -2.25 2.25 0 0 Z " fill="#010403" transform="translate(206,351)"/>
<path d="M0 0 C0.33 0.66 0.66 1.32 1 2 C0.01 3.485 0.01 3.485 -1 5 C3.95 5.33 8.9 5.66 14 6 C14 6.33 14 6.66 14 7 C6.74 7 -0.52 7 -8 7 C-6.68 6.67 -5.36 6.34 -4 6 C-3.8453125 5.071875 -3.8453125 5.071875 -3.6875 4.125 C-3 2 -3 2 0 0 Z " fill="#010402" transform="translate(270,226)"/>
<path d="M0 0 C0.66 0.33 1.32 0.66 2 1 C-1.27530896 5.63720719 -4.30435607 9.68542782 -9 13 C-9.66 12.67 -10.32 12.34 -11 12 C-9.38405168 9.95880212 -7.7143618 7.95927063 -6 6 C-5.34 6 -4.68 6 -4 6 C-3.67 5.01 -3.34 4.02 -3 3 C-1.4375 1.3125 -1.4375 1.3125 0 0 Z " fill="#071109" transform="translate(235,208)"/>
<path d="M0 0 C0.99 0.33 1.98 0.66 3 1 C1.21427748 2.83947337 -0.57802449 4.67157741 -2.375 6.5 C-2.88289063 7.02464844 -3.39078125 7.54929688 -3.9140625 8.08984375 C-5.23832604 9.43153181 -6.61605865 10.71995815 -8 12 C-8.66 12 -9.32 12 -10 12 C-8.125 7.25 -8.125 7.25 -7 5 C-5.68 5 -4.36 5 -3 5 C-3 4.34 -3 3.68 -3 3 C-2.34 3 -1.68 3 -1 3 C-0.67 2.01 -0.34 1.02 0 0 Z " fill="#06320F" transform="translate(272,182)"/>
<path d="M0 0 C1.32 0.33 2.64 0.66 4 1 C2.59808647 3.99254618 0.96632511 6.5954611 -1 9.25 C-1.515625 9.95640625 -2.03125 10.6628125 -2.5625 11.390625 C-3.2740625 12.18726563 -3.2740625 12.18726563 -4 13 C-4.66 13 -5.32 13 -6 13 C-5.34 11.35 -4.68 9.7 -4 8 C-3.34 8 -2.68 8 -2 8 C-1.34 5.36 -0.68 2.72 0 0 Z " fill="#69D38A" transform="translate(202,330)"/>
<path d="M0 0 C0.33 0.66 0.66 1.32 1 2 C1.66 2.33 2.32 2.66 3 3 C0.63707344 5.52588702 -0.66462511 6.88820837 -4 8 C-4.99 9.485 -4.99 9.485 -6 11 C-6.99 10.67 -7.98 10.34 -9 10 C-6.03 6.7 -3.06 3.4 0 0 Z " fill="#367054" transform="translate(232,300)"/>
<path d="M0 0 C1.5625 1.1875 1.5625 1.1875 3 3 C2.57894737 7.42105263 2.57894737 7.42105263 1 9 C-0.66617115 9.04063832 -2.33388095 9.042721 -4 9 C-4 8.34 -4 7.68 -4 7 C-3.34 7 -2.68 7 -2 7 C-1.855625 6.401875 -1.71125 5.80375 -1.5625 5.1875 C-1.1127561 3.43849596 -0.57107659 1.71322977 0 0 Z " fill="#343957" transform="translate(261,223)"/>
<path d="M0 0 C2 1.625 2 1.625 4 4 C4.25 7.25 4.25 7.25 4 10 C3.01 10.495 3.01 10.495 2 11 C1.67 10.01 1.34 9.02 1 8 C-0.32 9.32 -1.64 10.64 -3 12 C-3 11.01 -3 10.02 -3 9 C-2.505 8.566875 -2.01 8.13375 -1.5 7.6875 C0.3314563 5.97790291 0.3314563 5.97790291 0.1875 2.8125 C0.125625 1.884375 0.06375 0.95625 0 0 Z " fill="#0A1811" transform="translate(308,146)"/>
<path d="M0 0 C1 2 1 2 0.3125 5 C-1 8 -1 8 -3.0625 9.25 C-3.701875 9.4975 -4.34125 9.745 -5 10 C-5.33 10.66 -5.66 11.32 -6 12 C-6.99 11.67 -7.98 11.34 -9 11 C-6.03 7.37 -3.06 3.74 0 0 Z " fill="#1B7B43" transform="translate(209,328)"/>
<path d="M0 0 C0.66 1.32 1.32 2.64 2 4 C1.195625 4.309375 1.195625 4.309375 0.375 4.625 C-3.0017654 6.57996944 -5.30474839 9.18223695 -8 12 C-8.66 11.67 -9.32 11.34 -10 11 C-6.7 7.37 -3.4 3.74 0 0 Z " fill="#32654D" transform="translate(286,234)"/>
<path d="M0 0 C0.99 0.33 1.98 0.66 3 1 C3 3.31 3 5.62 3 8 C2.01 8.495 2.01 8.495 1 9 C1 8.01 1 7.02 1 6 C0.34 6 -0.32 6 -1 6 C-1.33 5.01 -1.66 4.02 -2 3 C-1.34 2.01 -0.68 1.02 0 0 Z " fill="#60E47D" transform="translate(223,296)"/>
<path d="M0 0 C0.66 1.32 1.32 2.64 2 4 C0.02 6.64 -1.96 9.28 -4 12 C-5 8 -5 8 -4 6 C-3.34 6.33 -2.68 6.66 -2 7 C-1.855625 6.030625 -1.71125 5.06125 -1.5625 4.0625 C-1 1 -1 1 0 0 Z " fill="#6AD988" transform="translate(254,267)"/>
<path d="M0 0 C2 2 2 2 2.125 5.625 C2.08375 6.73875 2.0425 7.8525 2 9 C1.01 9 0.02 9 -1 9 C-1 8.01 -1 7.02 -1 6 C-1.66 5.34 -2.32 4.68 -3 4 C-2.01 2.68 -1.02 1.36 0 0 Z " fill="#364859" transform="translate(268,210)"/>
<path d="M0 0 C0.66 0 1.32 0 2 0 C0.47291037 3.43595166 -1.59927045 6.11912454 -4 9 C-4.99 8.67 -5.98 8.34 -7 8 C-5.88200014 6.66079162 -4.75538103 5.32877444 -3.625 4 C-2.68527344 2.88625 -2.68527344 2.88625 -1.7265625 1.75 C-1.15679687 1.1725 -0.58703125 0.595 0 0 Z " fill="#132D21" transform="translate(216,336)"/>
<path d="M0 0 C-1.66751148 3.94139078 -4.22710649 6.7892812 -7 10 C-7.33 9.01 -7.66 8.02 -8 7 C-3.625 0 -3.625 0 0 0 Z " fill="#69D189" transform="translate(223,310)"/>
<path d="M0 0 C0.99 0.495 0.99 0.495 2 1 C1.01 1.495 1.01 1.495 0 2 C0 1.34 0 0.68 0 0 Z M-4 2 C-2.68 2.33 -1.36 2.66 0 3 C-1.12073862 3.83905565 -2.24674547 4.67107831 -3.375 5.5 C-4.00148437 5.9640625 -4.62796875 6.428125 -5.2734375 6.90625 C-7 8 -7 8 -9 8 C-8.34 6.68 -7.68 5.36 -7 4 C-6.01 4 -5.02 4 -4 4 C-4 3.34 -4 2.68 -4 2 Z " fill="#136238" transform="translate(219,320)"/>
<path d="M0 0 C1.5625 1.1875 1.5625 1.1875 3 3 C2.6875 5.6875 2.6875 5.6875 2 8 C0.68 7.34 -0.64 6.68 -2 6 C-1.49396008 3.83125748 -1.00016187 2.00032373 0 0 Z " fill="#50AF62" transform="translate(208,316)"/>
<path d="M0 0 C0.66 0.33 1.32 0.66 2 1 C1.01 4.3 0.02 7.6 -1 11 C-1.99 11 -2.98 11 -4 11 C-3.855625 10.46375 -3.71125 9.9275 -3.5625 9.375 C-2.93173132 6.8812099 -2.93173132 6.8812099 -2.5625 3.8125 C-2.376875 2.884375 -2.19125 1.95625 -2 1 C-1.34 0.67 -0.68 0.34 0 0 Z " fill="#26562F" transform="translate(229,274)"/>
<path d="M0 0 C0.99 0 1.98 0 3 0 C1.33248852 3.94139078 -1.22710649 6.7892812 -4 10 C-4.33 9.34 -4.66 8.68 -5 8 C-3.52830189 4.26415094 -3.52830189 4.26415094 -1 3 C-0.67 2.01 -0.34 1.02 0 0 Z " fill="#6DD28B" transform="translate(228,300)"/>
<path d="M0 0 C0.99 0.33 1.98 0.66 3 1 C-0.465 3.97 -0.465 3.97 -4 7 C-4.33 5.68 -4.66 4.36 -5 3 C-2.6875 1.4375 -2.6875 1.4375 0 0 Z " fill="#12451B" transform="translate(231,223)"/>
<path d="M0 0 C0 3.31766523 -0.45250948 4.0703452 -2.3125 6.6875 C-2.74175781 7.31011719 -3.17101562 7.93273437 -3.61328125 8.57421875 C-4.07089844 9.04472656 -4.52851563 9.51523438 -5 10 C-5.99 10 -6.98 10 -8 10 C-6.34908222 5.70761377 -3.26245434 3.1206085 0 0 Z " fill="#78B68A" transform="translate(307,151)"/>
<path d="M0 0 C1.1049773 3.74420365 0.88446894 5.50027197 -1 9 C-3.125 10.8125 -3.125 10.8125 -5 12 C-4.35550393 8.98782888 -3.34977818 6.48344164 -1.9375 3.75 C-1.57527344 3.04359375 -1.21304688 2.3371875 -0.83984375 1.609375 C-0.56269531 1.07828125 -0.28554687 0.5471875 0 0 Z " fill="#2E673A" transform="translate(201,329)"/>
<path d="M0 0 C0.99 0.66 1.98 1.32 3 2 C2.34 2 1.68 2 1 2 C0.731875 2.598125 0.46375 3.19625 0.1875 3.8125 C-0.98493467 5.97224808 -2.19369282 7.35790256 -4 9 C-4.66 8.67 -5.32 8.34 -6 8 C-4.02 5.36 -2.04 2.72 0 0 Z " fill="#0D2315" transform="translate(207,346)"/>
<path d="M0 0 C0.66 0.33 1.32 0.66 2 1 C0.50164772 5.66154042 -2.88463591 6.86610751 -7 9 C-6.67 8.01 -6.34 7.02 -6 6 C-5.34 6 -4.68 6 -4 6 C-3.67 5.01 -3.34 4.02 -3 3 C-1.4375 1.3125 -1.4375 1.3125 0 0 Z " fill="#050D07" transform="translate(222,221)"/>
<path d="M0 0 C0.33 0.66 0.66 1.32 1 2 C-0.70847138 6.13629913 -2.67356033 9.01767477 -6 12 C-4.68139111 7.38486888 -2.78644563 3.90102388 0 0 Z " fill="#0C0E1E" transform="translate(279,202)"/>
<path d="M0 0 C0.99 0 1.98 0 3 0 C1.44499019 3.81684226 -1.03595495 6.19195732 -4 9 C-4 7.68 -4 6.36 -4 5 C-3.01 4.34 -2.02 3.68 -1 3 C-0.67 2.01 -0.34 1.02 0 0 Z " fill="#6ED48C" transform="translate(237,289)"/>
<path d="M0 0 C0.33 0 0.66 0 1 0 C0.38461538 7.50769231 0.38461538 7.50769231 -1.5625 10 C-2.036875 10.33 -2.51125 10.66 -3 11 C-2.25 3.375 -2.25 3.375 0 0 Z " fill="#4F985E" transform="translate(224,285)"/>
<path d="M0 0 C-1.33333333 3.33333333 -2.66666667 6.66666667 -4 10 C-5.10348268 6.68955197 -4.99444068 4.34493684 -4 1 C-2 0 -2 0 0 0 Z " fill="#326651" transform="translate(241,254)"/>
<path d="M0 0 C0.99 0 1.98 0 3 0 C3 0.66 3 1.32 3 2 C2.34 2 1.68 2 1 2 C1 2.66 1 3.32 1 4 C2.65 4 4.3 4 6 4 C6 4.33 6 4.66 6 5 C3.36 5 0.72 5 -2 5 C-1.34 3.35 -0.68 1.7 0 0 Z " fill="#254C46" transform="translate(256,228)"/>
<path d="M0 0 C0.33 0.66 0.66 1.32 1 2 C1.66 2.33 2.32 2.66 3 3 C1.68 3.99 0.36 4.98 -1 6 C-1.66 5.67 -2.32 5.34 -3 5 C-1.125 1.125 -1.125 1.125 0 0 Z " fill="#335D51" transform="translate(232,300)"/>
<path d="M0 0 C1.98 0.495 1.98 0.495 4 1 C1.25 5.875 1.25 5.875 -1 7 C-0.67 4.69 -0.34 2.38 0 0 Z " fill="#6BDF86" transform="translate(225,285)"/>
<path d="M0 0 C0.33 0 0.66 0 1 0 C1 1.98 1 3.96 1 6 C0.34 6 -0.32 6 -1 6 C-1.33 6.66 -1.66 7.32 -2 8 C-2.66 8 -3.32 8 -4 8 C-2.87548273 5.0280615 -1.77706209 2.66559313 0 0 Z " fill="#31554F" transform="translate(286,183)"/>
<path d="M0 0 C0.66 0.33 1.32 0.66 2 1 C-0.475 4.465 -0.475 4.465 -3 8 C-3.66 7.67 -4.32 7.34 -5 7 C-5 5 -5 5 -2.5 2.375 C-1.675 1.59125 -0.85 0.8075 0 0 Z " fill="#6CC88C" transform="translate(282,187)"/>
</svg>